/* XPM */
static char * avatar_death_xpm[] = {
"32 32 8 1",
" 	c None",
".	c #0E0D0E",
"+	c #D2202C",
"@	c #EADFD1",
"#	c #7C776F",
"$	c #0A7030",
"%	c #B3AAA1",
"&	c #EBA724",
"                                ",
"                                ",
"                                ",
"                                ",
"                                ",
"                                ",
"                                ",
"                                ",
"        ..............          ",
"        ..............          ",
"      ....++++++++++....        ",
"      ....++++++++++....        ",
"      ..++....++++++++..        ",
"      ..++....++++++++..        ",
"      ..........++++..........  ",
"      ..........++++..........  ",
"          ..@@@@@@##########..  ",
"          ..@@@@@@##########..  ",
"  ..........@@..................",
"  ..........@@..................",
"....$$$$$$..##..@@@@@@%%%%%%%%..",
"....$$$$$$..##..@@@@@@%%%%%%%%..",
"..&&$$$$$$..##..@@..%%..%%..%%..",
"..&&$$$$$$..##..@@..%%..%%..%%..",
"..&&&&&&&&..##..%%..%%..%%..%%..",
"..&&&&&&&&..##..%%..%%..%%..%%..",
"........&&..##..%%..%%..%%..%%..",
"........&&..##..%%..%%..%%..%%..",
"..%%##..&&..##..%%%%%%%%%%%%%%..",
"..%%##..&&..##..%%%%%%%%%%%%%%..",
"................................",
"................................"};
