/* XPM */
static char * avatar_left_xpm[] = {
"32 32 8 1",
" 	c None",
".	c #0E0D0E",
"+	c #D2202C",
"@	c #7C776F",
"#	c #EADFD1",
"$	c #B3AAA1",
"%	c #EBA724",
"&	c #0A7030",
"            ..................  ",
"            ..................  ",
"          .....++++++++++++.....",
"          ..++++++++++.....+++..",
"          ..++++++++++.....+++..",
"  .............+++++............",
"  .............+++++............",
"  ...@@@@@@@@@@@@########..     ",
"......................###..     ",
"......................###..     ",
"..$$$$$$$$$$########..@@@..     ",
"..$$$$$$$$$$########..@@@..     ",
"..$$$..$$$..$$$..###..@@@..     ",
"..$$$..$$$..$$$..$$$..@@@..     ",
"..$$$..$$$..$$$..$$$..@@@..     ",
"..$$$..$$$..$$$..$$$..@@@..     ",
"..$$$..$$$..$$$..$$$..@@@..     ",
"..$$$$$$$$$$$$$$$$$$..@@@..     ",
"..$$$$$$$$$$$$$$$$$$..@@@..     ",
"..............................  ",
"  ...%%%%%%%%%%%%%%%&&&&&&&...  ",
"  ...%%%%%%%%%%%%%%%&&&&&&&...  ",
"  ...............%%%&&&&&&&...  ",
"  ...............%%%&&&&&&&...  ",
"  ...@@@@@@@@@@..%%%&&&&&&&...  ",
"  ...@@@@@@@@@@..%%%&&&&&&&...  ",
"  ...@@@@@@@@@@..%%%&&&&&&&...  ",
"  ...$$$$$.......%%%&&&&&&&...  ",
"  ...$$$$$.......%%%&&&&&&&...  ",
"  .....$$$.......%%%%%%%%%%...  ",
"     .......   ...............  ",
"     .......   ...............  "};
