/* XPM */
static char * avatar_xpm[] = {
"32 32 8 1",
" 	c None",
".	c #0E0D0E",
"+	c #D2202C",
"@	c #EADFD1",
"#	c #7C776F",
"$	c #B3AAA1",
"%	c #0A7030",
"&	c #EBA724",
"     ..............             ",
"     ..............             ",
"   ....++++++++++....           ",
"   ....++++++++++....           ",
"   ..++....++++++++..           ",
"   ..++....++++++++..           ",
"   ..........++++..........     ",
"   ..........++++..........     ",
"   ..  ..@@@@@@##########..     ",
"   ..  ..@@@@@@##########..     ",
"       ..@@..................   ",
"       ..@@..................   ",
"       ..##..@@@@$$$$$$$$$$..   ",
"       ..##..@@@@$$$$$$$$$$..   ",
"       ..##..@@..$$..$$..$$..   ",
"       ..##..@@..$$..$$..$$..   ",
"       ..##..$$..$$..$$..$$..   ",
"       ..##..$$..$$..$$..$$..   ",
"       ..##..$$$$$$$$$$$$$$..   ",
"       ..##..$$$$$$$$$$$$$$..   ",
"     ........................   ",
"     ........................   ",
"     ..%%%%%%&&&&&&&&&&&&..     ",
"     ..%%%%%%&&&&&&&&&&&&..     ",
"     ..%%%%%%&&............     ",
"     ..%%%%%%&&............     ",
"     ..%%%%%%&&..########..     ",
"     ..%%%%%%&&..########..     ",
"     ..&&&&&&&&......$$$$..     ",
"     ..&&&&&&&&......$$$$..     ",
"     ............  ........     ",
"     ............  ........     "};
