/* XPM */
static char * bg_xpm[] = {
"32 32 3 1",
" 	c #262B44",
".	c #5A6988",
"+	c #3A4466",
"  ....++++++..      ......++++..",
"  ....++++++..      ......++++..",
"..  ........  ....  ....++++++++",
"..  ........  ....  ....++++++++",
"++..  ....  ........  ....++++++",
"++..  ....  ........  ....++++++",
"++++..    ....++++....  ....++++",
"++++..    ....++++....  ....++++",
"++....  ....++++++++....  ....++",
"++....  ....++++++++....  ....++",
"....    ....++++++++++....  ....",
"....    ....++++++++++....  ....",
"        ....++++++++++++..      ",
"        ....++++++++++++..      ",
"..        ....++++++++++..    ..",
"..        ....++++++++++..    ..",
"++..        ....++++++....  ..++",
"++..        ....++++++....  ..++",
"++..  ......  ..........  ..++++",
"++..  ......  ..........  ..++++",
"..  ..........    ....  ..++++++",
"..  ..........    ....  ..++++++",
"  ....++++++....      ..++++++..",
"  ....++++++....      ..++++++..",
"....++++++++++....    ....++..  ",
"....++++++++++....    ....++..  ",
"..++++++++++++....      ....    ",
"..++++++++++++....      ....    ",
"..++++++++++++....              ",
"..++++++++++++....              ",
"....++++++++....      ........  ",
"....++++++++....      ........  "};
