/* XPM */
static char * collectible_xpm[] = {
"384 32 5 1",
" 	c None",
".	c #1B1B1B",
"+	c #FFF21B",
"@	c #FBC41B",
"#	c #F2741B",
"                                                                                                                                                                                                                                                                                                                                                                                                ",
"                                                                                                                                                                                                                                                                                                                                                                                                ",
"                                                                                                                                                                                                                                                                                                                                                                                                ",
"                                                                                                                                                                                                                                                                                                                                                                                                ",
"                                                                                                                                                                                                                                                                                                                                                                                                ",
"                                                                                                                                                                                                                                                                                                                                                                                                ",
"          ............                      ........                        ........                          ....                          ........                        ........                      ............                      ........                        ........                          ....                          ........                        ........            ",
"          ............                      ........                        ........                          ....                          ........                        ........                      ............                      ........                        ........                          ....                          ........                        ........            ",
"        ..++++++++++++..                  ..++++++++..                    ..++++++++..                      ..++++..                      ..++++++++..                    ..++++++++..                  ..++++++++++++..                  ..++++++++..                    ..++++++++..                      ..++++..                      ..++++++++..                    ..++++++++..          ",
"        ..++++++++++++..                  ..++++++++..                    ..++++++++..                      ..++++..                      ..++++++++..                    ..++++++++..                  ..++++++++++++..                  ..++++++++..                    ..++++++++..                      ..++++..                      ..++++++++..                    ..++++++++..          ",
"      ..++++@@@@@@@@@@##..              ..++++@@@@@@##..                  ..++++@@##..                      ..++##..                      ..##@@++++..                  ..##@@@@@@++++..              ..##@@@@@@@@@@++++..              ..##@@@@@@++++..                  ..##@@++++..                      ..##++..                      ..++++@@##..                  ..++++@@@@@@##..        ",
"      ..++++@@@@@@@@@@##..              ..++++@@@@@@##..                  ..++++@@##..                      ..++##..                      ..##@@++++..                  ..##@@@@@@++++..              ..##@@@@@@@@@@++++..              ..##@@@@@@++++..                  ..##@@++++..                      ..##++..                      ..++++@@##..                  ..++++@@@@@@##..        ",
"      ..++@@@@++++@@@@##..              ..++@@@@++@@##..                  ..++@@@@##..                      ..++##..                      ..##@@@@++..                  ..##@@++@@@@++..              ..##@@@@++++@@@@++..              ..##@@++@@@@++..                  ..##@@@@++..                      ..##++..                      ..++@@@@##..                  ..++@@@@++@@##..        ",
"      ..++@@@@++++@@@@##..              ..++@@@@++@@##..                  ..++@@@@##..                      ..++##..                      ..##@@@@++..                  ..##@@++@@@@++..              ..##@@@@++++@@@@++..              ..##@@++@@@@++..                  ..##@@@@++..                      ..##++..                      ..++@@@@##..                  ..++@@@@++@@##..        ",
"      ..++@@++@@@@##@@##..              ..++@@++##@@##..                  ..++++####..                      ..++##..                      ..####++++..                  ..##@@##++@@++..              ..##@@##@@@@++@@++..              ..##@@##++@@++..                  ..####++++..                      ..##++..                      ..++++####..                  ..++@@++##@@##..        ",
"      ..++@@++@@@@##@@##..              ..++@@++##@@##..                  ..++++####..                      ..++##..                      ..####++++..                  ..##@@##++@@++..              ..##@@##@@@@++@@++..              ..##@@##++@@++..                  ..####++++..                      ..##++..                      ..++++####..                  ..++@@++##@@##..        ",
"      ..++@@++@@@@##@@##..              ..++@@++##@@##..                  ..++++####..                      ..++##..                      ..####++++..                  ..##@@##++@@++..              ..##@@##@@@@++@@++..              ..##@@##++@@++..                  ..####++++..                      ..##++..                      ..++++####..                  ..++@@++##@@##..        ",
"      ..++@@++@@@@##@@##..              ..++@@++##@@##..                  ..++++####..                      ..++##..                      ..####++++..                  ..##@@##++@@++..              ..##@@##@@@@++@@++..              ..##@@##++@@++..                  ..####++++..                      ..##++..                      ..++++####..                  ..++@@++##@@##..        ",
"      ..++@@@@####@@@@##..              ..++@@##@@@@##..                  ..++@@@@##..                      ..++##..                      ..##@@@@++..                  ..##@@@@##@@++..              ..##@@@@####@@@@++..              ..##@@@@##@@++..                  ..##@@@@++..                      ..##++..                      ..++@@@@##..                  ..++@@##@@@@##..        ",
"      ..++@@@@####@@@@##..              ..++@@##@@@@##..                  ..++@@@@##..                      ..++##..                      ..##@@@@++..                  ..##@@@@##@@++..              ..##@@@@####@@@@++..              ..##@@@@##@@++..                  ..##@@@@++..                      ..##++..                      ..++@@@@##..                  ..++@@##@@@@##..        ",
"      ..++@@@@@@@@@@####..              ..++@@@@@@####..                  ..++@@####..                      ..++##..                      ..####@@++..                  ..####@@@@@@++..              ..####@@@@@@@@@@++..              ..####@@@@@@++..                  ..####@@++..                      ..##++..                      ..++@@####..                  ..++@@@@@@####..        ",
"      ..++@@@@@@@@@@####..              ..++@@@@@@####..                  ..++@@####..                      ..++##..                      ..####@@++..                  ..####@@@@@@++..              ..####@@@@@@@@@@++..              ..####@@@@@@++..                  ..####@@++..                      ..##++..                      ..++@@####..                  ..++@@@@@@####..        ",
"        ..############..                  ..########..                    ..########..                      ..####..                      ..########..                    ..########..                  ..############..                  ..########..                    ..########..                      ..####..                      ..########..                    ..########..          ",
"        ..############..                  ..########..                    ..########..                      ..####..                      ..########..                    ..########..                  ..############..                  ..########..                    ..########..                      ..####..                      ..########..                    ..########..          ",
"          ............                      ........                        ........                          ....                          ........                        ........                      ............                      ........                        ........                          ....                          ........                        ........            ",
"          ............                      ........                        ........                          ....                          ........                        ........                      ............                      ........                        ........                          ....                          ........                        ........            ",
"                                                                                                                                                                                                                                                                                                                                                                                                ",
"                                                                                                                                                                                                                                                                                                                                                                                                ",
"                                                                                                                                                                                                                                                                                                                                                                                                ",
"                                                                                                                                                                                                                                                                                                                                                                                                ",
"                                                                                                                                                                                                                                                                                                                                                                                                ",
"                                                                                                                                                                                                                                                                                                                                                                                                "};
