/* XPM */
static char * exit_xpm[] = {
"32 32 7 1",
" 	c None",
".	c #231C19",
"+	c #F99C0B",
"@	c #DD3013",
"#	c #AF101B",
"$	c #997D57",
"%	c #C3AA83",
"          ............          ",
"          ............          ",
"      ....++++++++++++....      ",
"      ....++++++++++++....      ",
"    ..++++++++++++++++++++..    ",
"    ..++++++++++++++++++++..    ",
"  ..++@@@@@@++++@@@@@@@@@@++..  ",
"  ..++@@@@@@++++@@@@@@@@@@++..  ",
"..++@@@@@@@@++++@@++++++@@@@++..",
"..++@@@@@@@@++++@@++++++@@@@++..",
"..++@@@@++@@@@@@@@++++++@@@@++..",
"..++@@@@++@@@@@@@@++++++@@@@++..",
"..++@@@@@@@@@@####++++++@@@@++..",
"..++@@@@@@@@@@####++++++@@@@++..",
"..##@@@@####@@####@@@@@@@@@@##..",
"..##@@@@####@@####@@@@@@@@@@##..",
"..####@@####@@@@@@@@##@@@@####..",
"..####@@####@@@@@@@@##@@@@####..",
"  ..########################..  ",
"  ..########################..  ",
"    ........................    ",
"    ........................    ",
"        ..$$$$$$$$$$$$..        ",
"        ..$$$$$$$$$$$$..        ",
"      ......%%%%%%%%$$....      ",
"      ......%%%%%%%%$$....      ",
"    ..$$%%%%..%%%%$$$$..%%..    ",
"    ..$$%%%%..%%%%$$$$..%%..    ",
"    ..$$$$$$..$$$$$$$$..$$..    ",
"    ..$$$$$$..$$$$$$$$..$$..    ",
"      ....................      ",
"      ....................      "};
