/* XPM */
static char * game_over_xpm[] = {
"109 60 2 1",
" 	c None",
".	c #FFFFFF",
"    ............                ............            ....                    ....       ..................",
"    ............                ............            ....                    ....       ..................",
"    ............                ............            ....                    ....       ..................",
"    ............                ............            ....                    ....       ..................",
"....            ....        ....            ....        ....                    ....       ....              ",
"....            ....        ....            ....        ....                    ....       ....              ",
"....            ....        ....            ....        ....                    ....       ....              ",
"....            ....        ....            ....        ....                    ....       ....              ",
"....                        ....            ....        ........            ........       ....              ",
"....                        ....            ....        ........            ........       ....              ",
"....                        ....            ....        ........            ........       ....              ",
"....                        ....            ....        ........            ........       ....              ",
"....        ........        ....            ....        ....    ....    ....    ....       ............      ",
"....        ........        ....            ....        ....    ....    ....    ....       ............      ",
"....        ........        ....            ....        ....    ....    ....    ....       ............      ",
"....        ........        ....            ....        ....    ....    ....    ....       ............      ",
"....            ....        ....................        ....        ....        ....       ....              ",
"....            ....        ....................        ....        ....        ....       ....              ",
"....            ....        ....................        ....        ....        ....       ....              ",
"....            ....        ....................        ....        ....        ....       ....              ",
"....            ....        ....            ....        ....                    ....       ....              ",
"....            ....        ....            ....        ....                    ....       ....              ",
"....            ....        ....            ....        ....                    ....       ....              ",
"....            ....        ....            ....        ....                    ....       ....              ",
"    ................        ....            ....        ....                    ....       ..................",
"    ................        ....            ....        ....                    ....       ..................",
"    ................        ....            ....        ....                    ....       ..................",
"    ................        ....            ....        ....                    ....       ..................",
"                                                                                                             ",
"                                                                                                             ",
"                                                                                                             ",
"                                                                                                             ",
"          ............           ....            ....       ..................       ...............         ",
"          ............           ....            ....       ..................       ...............         ",
"          ............           ....            ....       ..................       ...............         ",
"          ............           ....            ....       ..................       ...............         ",
"      ....            ....       ....            ....       ....                     ....           ....     ",
"      ....            ....       ....            ....       ....                     ....           ....     ",
"      ....            ....       ....            ....       ....                     ....           ....     ",
"      ....            ....       ....            ....       ....                     ....           ....     ",
"      ....            ....       ....            ....       ....                     ....           ....     ",
"      ....            ....       ....            ....       ....                     ....           ....     ",
"      ....            ....       ....            ....       ....                     ....           ....     ",
"      ....            ....       ....            ....       ....                     ....           ....     ",
"      ....            ....       ....            ....       ............             ...............         ",
"      ....            ....       ....            ....       ............             ...............         ",
"      ....            ....       ....            ....       ............             ...............         ",
"      ....            ....       ....            ....       ............             ...............         ",
"      ....            ....       ....            ....       ....                     ....           ....     ",
"      ....            ....       ....            ....       ....                     ....           ....     ",
"      ....            ....       ....            ....       ....                     ....           ....     ",
"      ....            ....       ....            ....       ....                     ....           ....     ",
"      ....            ....           ....    ....           ....                     ....           ....     ",
"      ....            ....           ....    ....           ....                     ....           ....     ",
"      ....            ....           ....    ....           ....                     ....           ....     ",
"      ....            ....           ....    ....           ....                     ....           ....     ",
"          ............                   ....               ..................       ....           ....     ",
"          ............                   ....               ..................       ....           ....     ",
"          ............                   ....               ..................       ....           ....     ",
"          ............                   ....               ..................       ....           ....     "};
