/* XPM */
static char * move_text_xpm[] = {
"102 32 2 1",
" 	c None",
".	c #FFFFFF",
"                                                                                                      ",
"                                                                                                      ",
"                                                                                                      ",
"                                                                                                      ",
"                                                                                                      ",
"                                                                                                      ",
"                                                                                                      ",
"                                                                                                      ",
"                                                                                                      ",
"..          ..      ......      ..      ..    ..........      ......                                  ",
"..          ..      ......      ..      ..    ..........      ......                ...               ",
"..          ..    ..      ..    ..      ..    ..            ..      ..              ...               ",
"..          ..    ..      ..    ..      ..    ..            ..      ..              ...               ",
"....      ....    ..      ..    ..      ..    ..            ..                                        ",
"....      ....    ..      ..    ..      ..    ..            ..                                        ",
"..  ..  ..  ..    ..      ..    ..      ..    ......          ......                                  ",
"..  ..  ..  ..    ..      ..    ..      ..    ......          ......                                  ",
"..    ..    ..    ..      ..    ..      ..    ..                    ..                                ",
"..    ..    ..    ..      ..    ..      ..    ..                    ..                                ",
"..          ..    ..      ..      ..  ..      ..            ..      ..              ...               ",
"..          ..    ..      ..      ..  ..      ..            ..      ..              ...               ",
"..          ..      ......          ..        ..........      ......                ...               ",
"..          ..      ......          ..        ..........      ......                                  ",
"                                                                                                      ",
"                                                                                                      ",
"                                                                                                      ",
"                                                                                                      ",
"                                                                                                      ",
"                                                                                                      ",
"                                                                                                      ",
"                                                                                                      ",
"                                                                                                      "};
