/* XPM */
static char * number_text_xpm[] = {
"320 32 2 1",
" 	c None",
".	c #FFFFFF",
"                                                                                                                                                                                                                                                                                                                                ",
"                                                                                                                                                                                                                                                                                                                                ",
"                                                                                                                                                                                                                                                                                                                                ",
"                                                                                                                                                                                                                                                                                                                                ",
"                                                                                                                                                                                                                                                                                                                                ",
"                                                                                                                                                                                                                                                                                                                                ",
"                                                                                                                                                                                                                                                                                                                                ",
"                                                                                                                                                                                                                                                                                                                                ",
"                                                                                                                                                                                                                                                                                                                                ",
"             ......                            ..                             ......                         ......                             ....                       ..........                        ......                        ..........                        ......                          ......             ",
"             ......                            ..                             ......                         ......                             ....                       ..........                        ......                        ..........                        ......                          ......             ",
"           ..      ..                        ....                           ..      ..                     ..      ..                         ..  ..                       ..                              ..      ..                              ..                      ..      ..                      ..      ..           ",
"           ..      ..                        ....                           ..      ..                     ..      ..                         ..  ..                       ..                              ..      ..                              ..                      ..      ..                      ..      ..           ",
"           ..    ....                      ..  ..                                   ..                             ..                       ..    ..                       ........                        ..                                    ..                        ..      ..                      ..      ..           ",
"           ..    ....                      ..  ..                                   ..                             ..                       ..    ..                       ........                        ..                                    ..                        ..      ..                      ..      ..           ",
"           ..  ..  ..                          ..                                 ..                           ....                       ..      ..                               ..                      ........                            ..                            ......                          ........           ",
"           ..  ..  ..                          ..                                 ..                           ....                       ..      ..                               ..                      ........                            ..                            ......                          ........           ",
"           ....    ..                          ..                               ..                                 ..                     ..........                               ..                      ..      ..                        ..                            ..      ..                              ..           ",
"           ....    ..                          ..                               ..                                 ..                     ..........                               ..                      ..      ..                        ..                            ..      ..                              ..           ",
"           ..      ..                          ..                             ..                           ..      ..                             ..                       ..      ..                      ..      ..                      ..                              ..      ..                      ..      ..           ",
"           ..      ..                          ..                             ..                           ..      ..                             ..                       ..      ..                      ..      ..                      ..                              ..      ..                      ..      ..           ",
"             ......                            ..                           ..........                       ......                               ..                         ......                          ......                        ..                                ......                          ......             ",
"             ......                            ..                           ..........                       ......                               ..                         ......                          ......                        ..                                ......                          ......             ",
"                                                                                                                                                                                                                                                                                                                                ",
"                                                                                                                                                                                                                                                                                                                                ",
"                                                                                                                                                                                                                                                                                                                                ",
"                                                                                                                                                                                                                                                                                                                                ",
"                                                                                                                                                                                                                                                                                                                                ",
"                                                                                                                                                                                                                                                                                                                                ",
"                                                                                                                                                                                                                                                                                                                                ",
"                                                                                                                                                                                                                                                                                                                                ",
"                                                                                                                                                                                                                                                                                                                                "};
