/* XPM */
static char * patrol_xpm[] = {
"384 32 5 1",
" 	c None",
".	c #161320",
"+	c #F3F1E2",
"@	c #6DA200",
"#	c #BAD200",
"                                                                                                                                                                                                     ......................                                                                                                                                                                     ",
"                                                                                                                                                                                                     ......................                                                                                                                                                                     ",
"                                                                                                                                                                     ......................          ..+++++++@@@@@@@@@@@..          ......................                                                                                                                                     ",
"                                                                                                                                                                     ......................          ..+++++++@@@@@@@@@@@..          ......................                                                                                                                                     ",
"                                                                                                                                                                     ..+++++++@@@@@@@@@@@..          ..++##############@@..          ..+++++++@@@@@@@@@@@..                                                                                                                                     ",
"                                                                                                     ......................          ......................          ..+++++++@@@@@@@@@@@..          ..++##############@@..          ..+++++++@@@@@@@@@@@..          ......................          ......................                                                                     ",
"                                                                                                     ......................          ......................          ..++##############@@..          ..@@##.....#######....          ..++##############@@..          ......................          ......................                                                                     ",
"                                                                     ......................          ..+++++++@@@@@@@@@@@..          ..+++++++@@@@@@@@@@@..          ..++##############@@..          ..@@##.....#######....          ..++##############@@..          ..+++++++@@@@@@@@@@@..          ..+++++++@@@@@@@@@@@..          ......................                                     ",
"                                                                     ......................          ..+++++++@@@@@@@@@@@..          ..+++++++@@@@@@@@@@@..          ..++##.....#######....          ..@@##.....#######....          ..++##.....#######....          ..+++++++@@@@@@@@@@@..          ..+++++++@@@@@@@@@@@..          ......................                                     ",
"                                     ......................          ..+++++++@@@@@@@@@@@..          ..++##############@@..          ..++##############@@..          ..@@##.....#######....          ..@@##.....#######....          ..@@##.....#######....          ..++##############@@..          ..++##############@@..          ..+++++++@@@@@@@@@@@..          ......................     ",
"                                     ......................          ..+++++++@@@@@@@@@@@..          ..++##############@@..          ..++##############@@..          ..@@##.....#######....          ..@@##.....#######....          ..@@##.....#######....          ..++##############@@..          ..++##############@@..          ..+++++++@@@@@@@@@@@..          ......................     ",
"     ......................          ..+++++++@@@@@@@@@@@..          ..++##############@@..          ..++##############@@..          ..++##############@@..          ..@@##.....#######....          ..@@##############@@..          ..@@##.....#######....          ..++##############@@..          ..++##############@@..          ..++##############@@..          ..+++++++@@@@@@@@@@@..     ",
"     ......................          ..+++++++@@@@@@@@@@@..          ..++##############@@..          ..@@##.....#######....          ..@@##.....#######....          ..@@##.....#######....          ..@@##############@@..          ..@@##.....#######....          ..@@##.....#######....          ..@@##.....#######....          ..++##############@@..          ..+++++++@@@@@@@@@@@..     ",
"     ..+++++++@@@@@@@@@@@..          ..++##############@@..          ..++##############@@..          ..@@##.....#######....          ..@@##.....#######....          ..@@##.....#######....          ..@@..###..##...##....          ..@@##.....#######....          ..@@##.....#######....          ..@@##.....#######....          ..++##############@@..          ..++##############@@..     ",
"     ..+++++++@@@@@@@@@@@..          ..++##############@@..          ..@@##############@@..          ..@@##.....#######....          ..@@##.....#######....          ..@@##############@@..          ..@@..###..##...##....          ..@@##############@@..          ..@@##.....#######....          ..@@##.....#######....          ..@@##############@@..          ..++##############@@..     ",
"     ..++##############@@..          ..++##############@@..          ..@@##############@@..          ..@@##.....#######....          ..@@##.....#######....          ..@@##############@@..          ......###.......##....          ..@@##############@@..          ..@@##.....#######....          ..@@##.....#######....          ..@@##############@@..          ..++##############@@..     ",
"     ..++##############@@..          ..@@##############@@..          ..@@##.....#######....          ..@@##############@@..          ..@@##############@@..          ..@@..###..##...##....          ......###.......##....          ..@@..###..##...##....          ..@@##############@@..          ..@@##############@@..          ..@@##.....#######....          ..@@##############@@..     ",
"     ..++##############@@..          ..@@##############@@..          ..@@##.....#######....          ..@@##############@@..          ..@@##############@@..          ..@@..###..##...##....            ..................            ..@@..###..##...##....          ..@@##############@@..          ..@@##############@@..          ..@@##.....#######....          ..@@##############@@..     ",
"     ..@@##############@@..          ..@@##############@@..          ..@@##############@@..          ..@@..###..##...##....          ..@@..###..##...##....          ......###.......##....            ..................            ......###.......##....          ..@@..###..##...##....          ..@@..###..##...##....          ..@@##############@@..          ..@@##############@@..     ",
"     ..@@##############@@..          ..@@##############@@..          ..@@##############@@..          ..@@..###..##...##....          ..@@..###..##...##....          ......###.......##....          ......................          ......###.......##....          ..@@..###..##...##....          ..@@..###..##...##....          ..@@##############@@..          ..@@##############@@..     ",
"     ..@@##############@@..          ..@@##############@@..          ..@@##############@@..          ..@@..###..##...##....          ..@@..###..##...##....       ............................       ......................          ......................          ..@@..###..##...##....          ..@@..###..##...##....          ..@@##############@@..          ..@@##############@@..     ",
"   ....@@##############@@....      ....@@##############@@....      ....@@..#######...##......      ........###.......##......      ........###.......##......     ............................     ..........................      ..........................      ........###.......##......      ........###.......##......      ....@@..#######...##......      ....@@##############@@....   ",
"   ....@@##############@@....      ....@@##############@@....      ....@@..#######...##......      ........###.......##......      ........###.......##......     ............................     ..........................      ..........................      ........###.......##......      ........###.......##......      ....@@..#######...##......      ....@@##############@@....   ",
".....@@@@##############@@@@..........@@@@#####..##...##@@@@..........@@@@..###..##...##..@@..........@@.........##.......@@..........@@.........##.......@@..........@@.........##.......@@..........@@.........##.......@@..........@@.........##.......@@..........@@.........##.......@@..........@@.........##.......@@..........@@@@..###..##...##..@@..........@@@@#####..##...##@@@@.....",
".....@@@@##############@@@@..........@@@@#####..##...##@@@@..........@@@@..###..##...##..@@..........@@.........##.......@@..........@@.........##.......@@..........@@.........##.......@@..........@@.........##.......@@..........@@.........##.......@@..........@@.........##.......@@..........@@.........##.......@@..........@@@@..###..##...##..@@..........@@@@#####..##...##@@@@.....",
"..@@@@@##################@@@@@....@@@@@##..###..#########@@@@@....@@@@@##..###..##...####@@@@@....@@@@@##..###..##...##..@@@@@....@@@@@##..###..##...##..@@@@@....@@@@@##..###..##...##..@@@@@....@@@@@.........##.......@@@@@....@@@@@##..###..##...##..@@@@@....@@@@@##..###..##...##..@@@@@....@@@@@##..###..##...##..@@@@@....@@@@@##..###..##...####@@@@@....@@@@@##..###..#########@@@@@..",
"..@@@@@##################@@@@@....@@@@@##..###..#########@@@@@....@@@@@##..###..##...####@@@@@....@@@@@##..###..##...##..@@@@@....@@@@@##..###..##...##..@@@@@....@@@@@##..###..##...##..@@@@@....@@@@@##..###..##...##..@@@@@....@@@@@##..###..##...##..@@@@@....@@@@@##..###..##...##..@@@@@....@@@@@##..###..##...##..@@@@@....@@@@@##..###..##...####@@@@@....@@@@@##..###..#########@@@@@..",
"..@@@@@##################@@@@@....@@@@@##..###..#########@@@@@....@@@@@##..###..##...####@@@@@....@@@@@##..###..##...##..@@@@@....@@@@@##..###..##...##..@@@@@....@@@@@@@@@@@@@@@@@@@@@@@@@@@@....@@@@@##..###..##...##..@@@@@....@@@@@@@@@@@@@@@@@@@@@@@@@@@@....@@@@@##..###..##...##..@@@@@....@@@@@##..###..##...##..@@@@@....@@@@@##..###..##...####@@@@@....@@@@@##..###..#########@@@@@..",
"..@@@@@@@@@@@@@@@@@@@@@@@@@@@@....@@@@@@@@@@@@@@@@@@@@@@@@@@@@....@@@@@@@@@@@@@@@@@@@@@@@@@@@@....@@@@@@@@@@@@@@@@@@@@@@@@@@@@....@@@@@@@@@@@@@@@@@@@@@@@@@@@@....@@@@@@@@@@@@@@@@@@@@@@@@@@@@....@@@@@@@@@@@@@@@@@@@@@@@@@@@@....@@@@@@@@@@@@@@@@@@@@@@@@@@@@....@@@@@@@@@@@@@@@@@@@@@@@@@@@@....@@@@@@@@@@@@@@@@@@@@@@@@@@@@....@@@@@@@@@@@@@@@@@@@@@@@@@@@@....@@@@@@@@@@@@@@@@@@@@@@@@@@@@..",
"..@@@@@@@@@@@@@@@@@@@@@@@@@@@@....@@@@@@@@@@@@@@@@@@@@@@@@@@@@....@@@@@@@@@@@@@@@@@@@@@@@@@@@@....@@@@@@@@@@@@@@@@@@@@@@@@@@@@....@@@@@@@@@@@@@@@@@@@@@@@@@@@@....@@@@@@@@@@@@@@@@@@@@@@@@@@@@....@@@@@@@@@@@@@@@@@@@@@@@@@@@@....@@@@@@@@@@@@@@@@@@@@@@@@@@@@....@@@@@@@@@@@@@@@@@@@@@@@@@@@@....@@@@@@@@@@@@@@@@@@@@@@@@@@@@....@@@@@@@@@@@@@@@@@@@@@@@@@@@@....@@@@@@@@@@@@@@@@@@@@@@@@@@@@..",
"................................................................................................................................................................................................................................................................................................................................................................................................",
"................................................................................................................................................................................................................................................................................................................................................................................................"};
