/* XPM */
static char * space_xpm[] = {
"32 32 5 1",
" 	c #3E2731",
".	c #593335",
"+	c #733E39",
"@	c #181425",
"#	c #2F1F2C",
"  ....++@@    ..@@####        @@",
"  ....++@@    ..@@####        @@",
"        ++@@  ..@@####      @@  ",
"        ++@@  ..@@####      @@  ",
"          ++@@..@@####  ..@@##  ",
"          ++@@..@@####  ..@@##  ",
"            ++@@@@@@@@@@@@####  ",
"            ++@@@@@@@@@@@@####  ",
"            ++@@@@....++@@####  ",
"            ++@@@@....++@@####  ",
"            ++@@        ++@@##  ",
"            ++@@        ++@@##  ",
"          ..@@            ++@@  ",
"          ..@@            ++@@  ",
"        ..@@##              ++@@",
"        ..@@##              ++@@",
"      ..@@####              ++@@",
"      ..@@####              ++@@",
"@@@@@@@@@@####            ..@@@@",
"@@@@@@@@@@####            ..@@@@",
"    ..++@@####          ..@@    ",
"    ..++@@####          ..@@    ",
"        ++@@##          @@      ",
"        ++@@##          @@      ",
"          ++@@########@@        ",
"          ++@@########@@        ",
"            ++@@@@@@@@          ",
"            ++@@@@@@@@          ",
"              ++@@@@##          ",
"              ++@@@@##          ",
"@@@@@@@@      ++@@####          ",
"@@@@@@@@      ++@@####          "};
