/* XPM */
static char * you_won_xpm[] = {
"140 63 9 1",
" 	c None",
".	c #FFFFFF",
"+	c #B33F17",
"@	c #E3FF63",
"#	c #E6F235",
"$	c #D6C21D",
"%	c #752D14",
"&	c #B0661D",
"*	c #C9840F",
"                                ....            ....            ............            ....            ....                                ",
"                                ....            ....            ............            ....            ....                                ",
"                                ....            ....            ............            ....            ....                                ",
"                                ....            ....            ............            ....            ....                                ",
"                                ....            ....        ....            ....        ....            ....                                ",
"                                ....            ....        ....            ....        ....            ....                                ",
"                                ....            ....        ....            ....        ....            ....                                ",
"                                ....            ....        ....            ....        ....            ....                                ",
"                                    ....    ....            ....            ....        ....            ....                                ",
"                                    ....    ....            ....            ....        ....            ....                                ",
"                                    ....    ....            ....            ....        ....            ....                                ",
"                                    ....    ....            ....            ....        ....            ....                                ",
"                                        ....                ....            ....        ....            ....                                ",
"                                        ....                ....            ....        ....            ....                                ",
"                                        ....                ....            ....        ....            ....                                ",
"                                        ....                ....            ....        ....            ....                                ",
"                                        ....                ....            ....        ....            ....                                ",
"             ++                         ....                ....            ....        ....            ....                 ++             ",
"            +@@+                        ....                ....            ....        ....            ....                +@@+            ",
"           +#$$#+                       ....                ....            ....        ....            ....               +#$$#+           ",
"           +#$$#+                       ....                ....            ....        ....            ....               +#$$#+           ",
"          +#$$$$#+                      ....                ....            ....        ....            ....              +#$$$$#+          ",
"          +#$$$$#+                      ....                ....            ....        ....            ....              +#$$$$#+          ",
"         +#$$$$$$#+                     ....                ....            ....        ....            ....             +#$$$$$$#+         ",
"         +#$$$$$$#+                     ....                    ............                ............                 +#$$$$$$#+         ",
"   ++++++#$$$$$$$$#++++++               ....                    ............                ............           ++++++#$$$$$$$$#++++++   ",
" ++@@####$$$$$$$$$$####@@++             ....                    ............                ............         ++@@####$$$$$$$$$$####@@++ ",
"+@#$$$$$$$$$$$$$$$$$$$$$$#@%            ....                    ............                ............        +@#$$$$$$$$$$$$$$$$$$$$$$#@%",
"%&**$$$$$$$$$$$$$$$$$$$$**&%                                                                                    %&**$$$$$$$$$$$$$$$$$$$$**&%",
" %&***$$$$$$$$$$$$$$$$***&%                                                                                      %&***$$$$$$$$$$$$$$$$***&% ",
"  %&&**$$$$$$$$$$$$$***&&%                                                                                        %&&**$$$$$$$$$$$$$***&&%  ",
"   %%&&**$$$$$$$$$$**&&%%                                                                                          %%&&**$$$$$$$$$$**&&%%   ",
"     %%&*$$$$$$$$$$*&%%                                                                                              %%&*$$$$$$$$$$*&%%     ",
"       %*$$$$$$$$$$*%                                                                                                  %*$$$$$$$$$$*%       ",
"      %$$$$$$$$$$$$$$%                                                                                                %$$$$$$$$$$$$$$%      ",
"      %$$$$******$$$$%          ....            ....            ............            ....            ....          %$$$$******$$$$%      ",
"     %$$$***&&&&***$$$%         ....            ....            ............            ....            ....         %$$$***&&&&***$$$%     ",
"     %$$**&&&&&&&&**$$%         ....            ....            ............            ....            ....         %$$**&&&&&&&&**$$%     ",
"    %*$**&&&%%%%&&&**$*%        ....            ....            ............            ....            ....        %*$**&&&%%%%&&&**$*%    ",
"    %***&&&%    %&&&***%        ....            ....        ....            ....        ....            ....        %***&&&%    %&&&***%    ",
"   %**&&&&%      %&&&&**%       ....            ....        ....            ....        ....            ....       %**&&&&%      %&&&&**%   ",
"   %&&&&&%        %&&&&&%       ....            ....        ....            ....        ....            ....       %&&&&&%        %&&&&&%   ",
"    %&&%%          %%&&%        ....            ....        ....            ....        ....            ....        %&&%%          %%&&%    ",
"     %%              %%         ....    ....    ....        ....            ....        ........        ....         %%              %%     ",
"                                ....    ....    ....        ....            ....        ........        ....                                ",
"                                ....    ....    ....        ....            ....        ........        ....                                ",
"                                ....    ....    ....        ....            ....        ........        ....                                ",
"                                ....    ....    ....        ....            ....        ....    ....    ....                                ",
"                                ....    ....    ....        ....            ....        ....    ....    ....                                ",
"                                ....    ....    ....        ....            ....        ....    ....    ....                                ",
"                                ....    ....    ....        ....            ....        ....    ....    ....                                ",
"                                ....    ....    ....        ....            ....        ....        ........                                ",
"                                ....    ....    ....        ....            ....        ....        ........                                ",
"                                ....    ....    ....        ....            ....        ....        ........                                ",
"                                ....    ....    ....        ....            ....        ....        ........                                ",
"                                ....    ....    ....        ....            ....        ....            ....                                ",
"                                ....    ....    ....        ....            ....        ....            ....                                ",
"                                ....    ....    ....        ....            ....        ....            ....                                ",
"                                ....    ....    ....        ....            ....        ....            ....                                ",
"                                    ....    ....                ............            ....            ....                                ",
"                                    ....    ....                ............            ....            ....                                ",
"                                    ....    ....                ............            ....            ....                                ",
"                                    ....    ....                ............            ....            ....                                "};
