/* XPM */
static char * you_won_xpm[] = {
"84 63 2 1",
" 	c None",
".	c #FFFFFF",
"    ....            ....            ............            ....            ....    ",
"    ....            ....            ............            ....            ....    ",
"    ....            ....            ............            ....            ....    ",
"    ....            ....            ............            ....            ....    ",
"    ....            ....        ....            ....        ....            ....    ",
"    ....            ....        ....            ....        ....            ....    ",
"    ....            ....        ....            ....        ....            ....    ",
"    ....            ....        ....            ....        ....            ....    ",
"        ....    ....            ....            ....        ....            ....    ",
"        ....    ....            ....            ....        ....            ....    ",
"        ....    ....            ....            ....        ....            ....    ",
"        ....    ....            ....            ....        ....            ....    ",
"            ....                ....            ....        ....            ....    ",
"            ....                ....            ....        ....            ....    ",
"            ....                ....            ....        ....            ....    ",
"            ....                ....            ....        ....            ....    ",
"            ....                ....            ....        ....            ....    ",
"            ....                ....            ....        ....            ....    ",
"            ....                ....            ....        ....            ....    ",
"            ....                ....            ....        ....            ....    ",
"            ....                ....            ....        ....            ....    ",
"            ....                ....            ....        ....            ....    ",
"            ....                ....            ....        ....            ....    ",
"            ....                ....            ....        ....            ....    ",
"            ....                    ............                ............        ",
"            ....                    ............                ............        ",
"            ....                    ............                ............        ",
"            ....                    ............                ............        ",
"                                                                                    ",
"                                                                                    ",
"                                                                                    ",
"                                                                                    ",
"                                                                                    ",
"                                                                                    ",
"                                                                                    ",
"....                    ....            ............            ....            ....",
"....                    ....            ............            ....            ....",
"....                    ....            ............            ....            ....",
"....                    ....            ............            ....            ....",
"....                    ....        ....            ....        ....            ....",
"....                    ....        ....            ....        ....            ....",
"....                    ....        ....            ....        ....            ....",
"....                    ....        ....            ....        ....            ....",
"....        ....        ....        ....            ....        ........        ....",
"....        ....        ....        ....            ....        ........        ....",
"....        ....        ....        ....            ....        ........        ....",
"....        ....        ....        ....            ....        ........        ....",
"....        ....        ....        ....            ....        ....    ....    ....",
"....        ....        ....        ....            ....        ....    ....    ....",
"....        ....        ....        ....            ....        ....    ....    ....",
"....        ....        ....        ....            ....        ....    ....    ....",
"....        ....        ....        ....            ....        ....        ........",
"....        ....        ....        ....            ....        ....        ........",
"....        ....        ....        ....            ....        ....        ........",
"....        ....        ....        ....            ....        ....        ........",
"....        ....        ....        ....            ....        ....            ....",
"....        ....        ....        ....            ....        ....            ....",
"....        ....        ....        ....            ....        ....            ....",
"....        ....        ....        ....            ....        ....            ....",
"    ........    ........                ............            ....            ....",
"    ........    ........                ............            ....            ....",
"    ........    ........                ............            ....            ....",
"    ........    ........                ............            ....            ...."};
